<svg width="321" height="327" viewBox="0 0 321 327" fill="none" xmlns="http://www.w3.org/2000/svg">
<g id="No Results">
<g id="search">
<g id="documents">
<path id="Fill 3" fill-rule="evenodd" clip-rule="evenodd" d="M298.164 291.359H125.028C112.842 291.359 102.867 281.354 102.867 269.127V22.2266C102.867 9.99948 112.842 0 125.028 0H298.164C310.355 0 320.33 9.99948 320.33 22.2266V269.127C320.33 281.354 310.355 291.359 298.164 291.359Z" fill="#B5B5B5"/>
<path id="Fill 5" fill-rule="evenodd" clip-rule="evenodd" d="M283.791 299.694H110.297C98.0855 299.694 88.0898 289.731 88.0898 277.555V31.6766C88.0898 19.5001 98.0855 9.54199 110.297 9.54199H283.791C296.007 9.54199 306.003 19.5001 306.003 31.6766V277.555C306.003 289.731 296.007 299.694 283.791 299.694Z" fill="#B5B5B5"/>
<path id="Fill 8" fill-rule="evenodd" clip-rule="evenodd" d="M283.791 299.694H110.297C98.0855 299.694 88.0898 289.731 88.0898 277.555V31.6766C88.0898 19.5001 98.0855 9.54199 110.297 9.54199H283.791C296.007 9.54199 306.003 19.5001 306.003 31.6766V277.555C306.003 289.731 296.007 299.694 283.791 299.694Z" fill="#F6F6F6"/>
<path id="Fill 11" fill-rule="evenodd" clip-rule="evenodd" d="M258.786 84.4517H130.64C126.98 84.4517 123.984 81.6018 123.984 78.1202C123.984 74.6338 126.98 71.7839 130.64 71.7839H258.786C262.445 71.7839 265.441 74.6338 265.441 78.1202C265.441 81.6018 262.445 84.4517 258.786 84.4517Z" fill="#B5B5B5"/>
<path id="Fill 13" fill-rule="evenodd" clip-rule="evenodd" d="M258.786 122.455H130.64C126.98 122.455 123.984 119.605 123.984 116.123C123.984 112.637 126.98 109.787 130.64 109.787H258.786C262.445 109.787 265.441 112.637 265.441 116.123C265.441 119.605 262.445 122.455 258.786 122.455Z" fill="#B5B5B5"/>
<path id="Fill 15" fill-rule="evenodd" clip-rule="evenodd" d="M258.786 160.458H130.64C126.98 160.458 123.984 157.609 123.984 154.127C123.984 150.645 126.98 147.791 130.64 147.791H258.786C262.445 147.791 265.441 150.645 265.441 154.127C265.441 157.609 262.445 160.458 258.786 160.458Z" fill="#B5B5B5"/>
<path id="Fill 17" fill-rule="evenodd" clip-rule="evenodd" d="M258.786 198.462H130.64C126.98 198.462 123.984 195.612 123.984 192.13C123.984 188.644 126.98 185.794 130.64 185.794H258.786C262.445 185.794 265.441 188.644 265.441 192.13C265.441 195.612 262.445 198.462 258.786 198.462Z" fill="#B5B5B5"/>
<path id="Fill 19" fill-rule="evenodd" clip-rule="evenodd" d="M197.53 236.465H130.668C126.993 236.465 123.984 233.615 123.984 230.133C123.984 226.647 126.993 223.797 130.668 223.797H197.53C201.205 223.797 204.214 226.647 204.214 230.133C204.214 233.615 201.205 236.465 197.53 236.465Z" fill="#B5B5B5"/>
</g>
</g>
<g id="Group 2">
<path id="Vector" opacity="0.3" d="M179.28 175.885C170.916 187.372 159.154 195.94 145.655 200.378C132.156 204.815 117.604 204.897 104.056 200.613C97.0573 198.404 90.4698 195.058 84.5586 190.707C73.7169 182.799 65.4638 171.853 60.8428 159.254C56.2217 146.655 55.4403 132.969 58.5974 119.926C61.7544 106.883 68.7082 95.0693 78.5793 85.9783C88.4504 76.8873 100.796 70.9274 114.054 68.8523C127.312 66.7773 140.888 68.6802 153.065 74.3204C165.241 79.9607 175.472 89.0851 182.463 100.54C189.455 111.994 192.892 125.265 192.342 138.673C191.791 152.081 187.277 165.025 179.37 175.868L179.28 175.885Z" fill="white"/>
<path id="Vector_2" opacity="0.7" d="M187.319 110.112L56.8062 130.543C56.8935 129.498 56.9695 128.492 57.0964 127.458C57.9074 120.832 59.7008 114.363 62.4174 108.265L175.125 90.6218C180.278 96.3704 184.403 102.964 187.319 110.112Z" fill="white"/>
<path id="Vector_3" opacity="0.7" d="M190.052 153.433L128.702 163.02L67.3531 172.606C61.725 163.875 58.1939 153.96 57.0363 143.636L191.004 122.66C193.05 132.855 192.724 143.384 190.052 153.433Z" fill="white"/>
<path id="Vector_4" d="M170.563 72.6455C158.062 63.5607 143.15 58.384 127.71 57.7693C112.269 57.1546 96.9926 61.1295 83.8097 69.1918C70.6268 77.2542 60.1288 89.0424 53.6416 103.068C47.1544 117.093 44.969 132.726 47.3614 147.992C49.7538 163.259 56.6167 177.474 67.0833 188.842C77.5499 200.211 91.1507 208.223 106.168 211.866C121.185 215.509 136.945 214.62 151.458 209.311C165.97 204.003 178.584 194.513 187.706 182.039C193.778 173.736 198.152 164.317 200.577 154.32C203.002 144.324 203.431 133.947 201.838 123.785C200.246 113.622 196.663 103.874 191.296 95.0984C185.93 86.323 178.884 78.6929 170.563 72.6455ZM88.055 185.89C78.1962 178.703 70.6887 168.755 66.4808 157.303C62.2729 145.851 61.5534 133.409 64.4131 121.548C67.2728 109.688 73.5835 98.9404 82.548 90.6645C91.5126 82.3885 102.729 76.955 114.78 75.0503C126.831 73.1455 139.176 74.8551 150.256 79.9629C161.335 85.0707 170.653 93.3476 177.031 103.748C183.409 114.149 186.562 126.206 186.091 138.398C185.62 150.589 181.547 162.368 174.385 172.245C169.614 178.809 163.595 184.368 156.673 188.603C149.75 192.838 142.061 195.666 134.045 196.926C126.028 198.186 117.842 197.853 109.955 195.946C102.067 194.039 94.6329 190.595 88.0778 185.811L88.055 185.89Z" fill="#001A72"/>
<path id="Vector_5" opacity="0.3" d="M170.563 72.6455C158.062 63.5607 143.15 58.384 127.71 57.7693C112.269 57.1546 96.9926 61.1295 83.8097 69.1918C70.6268 77.2542 60.1288 89.0424 53.6416 103.068C47.1544 117.093 44.969 132.726 47.3614 147.992C49.7538 163.259 56.6167 177.474 67.0833 188.842C77.5499 200.211 91.1507 208.223 106.168 211.866C121.185 215.509 136.945 214.62 151.458 209.311C165.97 204.003 178.584 194.513 187.706 182.039C193.778 173.736 198.152 164.317 200.577 154.32C203.002 144.324 203.431 133.947 201.838 123.785C200.246 113.622 196.663 103.874 191.296 95.0984C185.93 86.323 178.884 78.6929 170.563 72.6455ZM88.055 185.89C78.1962 178.703 70.6887 168.755 66.4808 157.303C62.2729 145.851 61.5534 133.409 64.4131 121.548C67.2728 109.688 73.5835 98.9404 82.548 90.6645C91.5126 82.3885 102.729 76.955 114.78 75.0503C126.831 73.1455 139.176 74.8551 150.256 79.9629C161.335 85.0707 170.653 93.3476 177.031 103.748C183.409 114.149 186.562 126.206 186.091 138.398C185.62 150.589 181.547 162.368 174.385 172.245C169.614 178.809 163.595 184.368 156.673 188.603C149.75 192.838 142.061 195.666 134.045 196.926C126.028 198.186 117.842 197.853 109.955 195.946C102.067 194.039 94.6329 190.595 88.0778 185.811L88.055 185.89Z" fill="#3F3F46"/>
<path id="Vector_6" d="M90.1264 196.214C81.1368 213.278 70.8211 229.445 60.342 245.438C54.936 253.343 49.7162 261.344 44.1071 269.063L35.7695 280.748C34.3349 283.019 32.3974 284.931 30.1065 286.334C27.8156 287.738 25.2328 288.596 22.5574 288.843C19.6825 289.196 16.7807 288.442 14.4416 286.734C12.1026 285.025 10.5019 282.49 9.96474 279.644C9.3776 277.023 9.40183 274.303 10.0356 271.693C10.6694 269.083 11.8957 266.655 13.6194 264.595L22.1995 253.109C27.8481 245.402 33.886 237.979 39.7491 230.42C51.7572 215.511 64.0079 200.801 77.5336 187.015C78.8473 185.623 80.6237 184.758 82.5296 184.583C84.4355 184.407 86.34 184.933 87.8855 186.062C89.431 187.191 90.5114 188.846 90.924 190.715C91.3366 192.584 91.053 194.539 90.1264 196.214Z" fill="#001A72"/>
<path id="Vector_7" opacity="0.3" d="M90.1264 196.214C81.1368 213.278 70.8211 229.445 60.342 245.438C54.936 253.343 49.7162 261.344 44.1071 269.063L35.7695 280.748C34.3349 283.019 32.3974 284.931 30.1065 286.334C27.8156 287.738 25.2328 288.596 22.5574 288.843C19.6825 289.196 16.7807 288.442 14.4416 286.734C12.1026 285.025 10.5019 282.49 9.96474 279.644C9.3776 277.023 9.40183 274.303 10.0356 271.693C10.6694 269.083 11.8957 266.655 13.6194 264.595L22.1995 253.109C27.8481 245.402 33.886 237.979 39.7491 230.42C51.7572 215.511 64.0079 200.801 77.5336 187.015C78.8473 185.623 80.6237 184.758 82.5296 184.583C84.4355 184.407 86.34 184.933 87.8855 186.062C89.431 187.191 90.5114 188.846 90.924 190.715C91.3366 192.584 91.053 194.539 90.1264 196.214Z" fill="#3F3F46"/>
</g>
</g>
</svg>
